<?xml version="1.0" standalone="no"?>
<!DOCTYPE svg PUBLIC "-//W3C//DTD SVG 20010904//EN"
 "http://www.w3.org/TR/2001/REC-SVG-20010904/DTD/svg10.dtd">
<svg version="1.0" xmlns="http://www.w3.org/2000/svg"
 width="512.000000pt" height="512.000000pt" viewBox="0 0 512.000000 512.000000"
 preserveAspectRatio="xMidYMid meet">

<g transform="translate(0.000000,512.000000) scale(0.100000,-0.100000)"
fill=" rgb(104, 113, 173)" stroke="none">
<path d="M489 4310 c-68 -12 -129 -42 -172 -86 -51 -51 -74 -98 -87 -175 -6
-42 -10 -520 -10 -1371 l0 -1308 -85 0 c-78 0 -88 -2 -110 -25 -22 -21 -25
-33 -25 -93 0 -146 32 -233 117 -323 66 -70 146 -108 252 -120 43 -6 778 -8
1707 -7 1589 3 1632 4 1653 22 25 22 28 73 7 102 -14 19 -46 19 -1703 24
-1598 5 -1690 6 -1728 23 -81 36 -155 139 -155 215 l0 32 890 0 890 0 0 -70
c0 -80 12 -113 47 -129 34 -15 1132 -15 1166 0 35 16 47 49 47 129 l0 70 890
0 890 0 0 -32 c0 -45 -40 -126 -81 -165 -69 -65 -82 -67 -416 -71 -283 -3
-302 -5 -319 -23 -24 -27 -22 -75 5 -102 21 -21 30 -22 267 -25 135 -2 280 1
323 6 108 13 187 51 254 121 85 90 117 177 117 323 0 60 -3 72 -25 93 -22 23
-32 25 -110 25 l-85 0 0 1308 c0 851 -4 1329 -10 1371 -6 35 -19 80 -29 100
-29 56 -99 119 -161 144 l-55 22 -2055 1 c-1130 1 -2076 -2 -2101 -6z m4135
-151 c54 -14 104 -63 117 -115 5 -22 9 -612 9 -1351 l0 -1313 -2190 0 -2190 0
0 1313 c0 739 4 1329 9 1351 12 48 63 102 110 114 53 15 4079 15 4135 1z
m-1584 -2969 l0 -30 -480 0 -480 0 0 30 0 30 480 0 480 0 0 -30z"/>
<path d="M625 4001 c-22 -10 -52 -31 -67 -47 -58 -62 -58 -64 -58 -542 0 -427
1 -439 20 -457 28 -25 76 -23 103 4 22 21 22 24 25 448 2 377 5 429 19 445 15
17 105 18 1893 18 1806 0 1878 -1 1893 -18 16 -17 17 -108 17 -1105 l0 -1087
-1910 0 -1909 0 -3 419 c-3 396 -4 420 -22 440 -25 27 -79 28 -106 1 -19 -19
-20 -33 -20 -495 l0 -474 22 -21 c22 -20 23 -20 2038 -20 2015 0 2016 0 2038
20 l22 21 0 1150 c0 1259 3 1187 -58 1253 -15 16 -45 37 -67 47 -38 18 -112
19 -1935 19 -1823 0 -1897 -1 -1935 -19z"/>
</g>
</svg>
