<?xml version="1.0" standalone="no"?>
<!DOCTYPE svg PUBLIC "-//W3C//DTD SVG 20010904//EN"
 "http://www.w3.org/TR/2001/REC-SVG-20010904/DTD/svg10.dtd">
<svg version="1.0" xmlns="http://www.w3.org/2000/svg"
 width="512.000000pt" height="512.000000pt" viewBox="0 0 512.000000 512.000000"
 preserveAspectRatio="xMidYMid meet">

<g transform="translate(0.000000,512.000000) scale(0.100000,-0.100000)"
fill=" rgb(104, 113, 173)" stroke="none">
<path d="M1861 5106 c-77 -28 -151 -122 -151 -194 0 -43 -18 -78 -47 -91 -17
-8 -216 -11 -664 -11 l-640 0 -24 -25 -25 -24 0 -2356 0 -2356 25 -24 24 -25
1736 0 c1714 0 1735 0 1755 20 11 11 22 30 25 42 3 13 4 235 3 494 -3 448 -4
473 -22 493 -25 27 -79 28 -106 1 -19 -19 -20 -33 -20 -460 l0 -440 -1635 0
-1635 0 0 2255 0 2255 396 0 397 0 -7 -31 c-3 -17 -6 -53 -6 -80 l0 -49 -285
0 -286 0 -24 -25 -25 -24 0 -829 c0 -824 0 -829 21 -856 28 -36 80 -36 108 0
21 26 21 33 21 805 l0 779 235 0 235 0 0 -51 c0 -76 18 -133 58 -180 65 -76
78 -79 405 -79 274 0 288 1 307 20 33 33 30 75 -6 108 -25 22 -29 22 -295 22
l-270 0 -24 25 c-25 24 -25 26 -25 204 0 176 1 181 24 208 24 27 27 28 148 33
107 4 130 8 173 31 65 33 101 86 119 174 22 105 22 105 240 105 126 -1 186 -4
197 -13 22 -16 39 -51 39 -78 0 -81 78 -183 156 -207 23 -6 89 -12 146 -12 91
0 109 -3 132 -21 l26 -20 0 -195 c0 -181 -1 -195 -20 -214 -19 -19 -33 -20
-255 -20 -153 0 -243 -4 -259 -11 -51 -24 -55 -103 -6 -129 14 -8 103 -10 284
-8 l263 3 41 28 c69 45 96 96 102 191 l5 81 238 3 237 2 0 -767 0 -768 -60
-103 c-71 -124 -74 -132 -59 -165 11 -24 -11 -65 -296 -558 -169 -293 -316
-551 -326 -573 -29 -64 -25 -141 12 -214 l31 -62 -31 -54 c-39 -67 -40 -107
-5 -135 15 -12 34 -21 44 -21 28 0 67 37 96 90 l27 50 56 0 c71 0 143 33 191
86 19 21 95 144 169 272 73 128 138 235 142 238 5 3 9 -261 9 -600 l0 -606
-1325 0 -1325 0 0 1025 0 1026 -25 24 c-31 32 -69 32 -100 0 l-25 -24 0 -1076
0 -1076 25 -24 24 -25 1423 0 c1103 1 1427 3 1439 13 39 30 39 33 39 842 l0
787 71 121 c39 67 75 126 80 132 5 5 9 -173 9 -452 l0 -462 26 -20 c43 -34 86
-26 109 20 13 24 15 112 15 558 l0 531 317 549 318 550 45 -26 c25 -14 51 -33
58 -41 30 -38 15 -72 -228 -492 -252 -435 -262 -457 -220 -495 26 -24 76 -23
100 1 27 27 485 824 500 869 32 98 -8 207 -97 263 -91 56 -90 43 -17 167 35
60 64 117 64 126 0 9 -8 27 -19 40 -18 24 -18 24 45 134 35 60 64 120 64 133
0 34 -31 59 -172 140 -128 73 -173 87 -202 63 -9 -7 -41 -59 -73 -116 l-58
-104 -42 6 c-29 4 -50 1 -66 -10 -12 -8 -88 -128 -167 -266 l-145 -252 -5 568
c-3 312 -9 576 -14 586 -4 10 -17 22 -27 27 -11 6 -264 10 -664 10 l-646 0
-24 25 c-16 15 -25 36 -25 57 -2 83 -57 168 -134 204 -49 23 -61 24 -251 23
-130 0 -212 -5 -234 -13z m1869 -1100 l0 -654 -80 -139 -80 -138 0 677 c0 475
-3 684 -11 701 -20 44 -44 47 -333 47 l-273 0 -7 65 c-4 36 -9 72 -12 80 -5
13 41 15 395 15 l401 0 0 -654z m846 153 c30 -17 54 -32 54 -34 0 -3 -69 -125
-75 -133 -4 -4 -114 58 -119 66 -6 10 66 132 77 132 5 0 34 -14 63 -31z m-166
-262 c58 -33 110 -64 117 -69 8 -6 1 -27 -25 -73 -21 -36 -40 -65 -45 -65 -8
0 -247 137 -260 149 -4 4 9 37 30 73 34 59 40 65 58 56 11 -6 67 -38 125 -71z
m-157 -267 c88 -51 126 -78 123 -87 -8 -19 -617 -1076 -627 -1087 -4 -5 -68
26 -143 70 l-135 78 18 30 c10 17 130 225 266 461 339 588 355 616 363 612 4
-2 65 -37 135 -77z m-718 -1236 c44 -26 82 -48 84 -50 4 -4 -426 -753 -443
-771 -8 -9 -31 -1 -96 37 -47 27 -84 55 -82 60 2 10 395 695 428 748 8 12 18
22 22 22 4 0 43 -21 87 -46z m-533 -912 c43 -24 80 -47 83 -52 8 -14 -82 -166
-112 -190 -61 -48 -149 -11 -160 66 -4 35 1 52 47 133 29 50 56 90 59 89 4 -2
41 -22 83 -46z"/>
<path d="M2045 4785 c-48 -47 -16 -125 52 -125 32 0 73 42 73 75 0 33 -42 75
-75 75 -14 0 -37 -11 -50 -25z"/>
<path d="M1116 3869 c-26 -20 -26 -22 -26 -152 0 -143 11 -202 53 -286 39 -76
81 -135 154 -212 l65 -69 -57 -57 c-154 -153 -215 -283 -215 -453 0 -148 63
-279 202 -421 l69 -71 -68 -71 c-159 -168 -203 -274 -203 -494 0 -123 1 -134
22 -153 12 -11 32 -20 46 -20 60 0 82 42 82 156 l0 74 235 0 235 0 0 -90 c0
-83 2 -93 25 -115 13 -14 36 -25 50 -25 14 0 37 11 50 25 24 23 25 30 25 147
0 210 -49 327 -207 498 l-66 71 70 72 c80 82 142 173 175 256 29 76 32 239 4
321 -29 87 -89 181 -172 269 l-76 81 56 60 c71 78 140 175 168 236 37 85 48
145 48 272 0 117 -1 124 -25 147 -13 14 -36 25 -50 25 -14 0 -37 -11 -50 -25
-23 -22 -25 -32 -25 -115 l0 -90 -235 0 -235 0 0 74 c0 41 -5 87 -10 102 -21
55 -68 69 -114 33z m554 -367 c0 -18 -80 -130 -136 -191 l-59 -64 -63 67 c-66
71 -132 162 -132 183 0 10 45 13 195 13 107 0 195 -4 195 -8z m-101 -529 c70
-70 117 -150 128 -216 l6 -37 -227 0 c-261 0 -248 -7 -197 103 47 102 154 216
205 217 10 0 48 -30 85 -67z m125 -425 c-21 -71 -95 -177 -178 -257 l-46 -45
-74 77 c-69 71 -146 194 -146 233 0 11 42 14 226 14 l225 0 -7 -22z m-104
-623 c48 -61 85 -123 77 -131 -2 -3 -93 -3 -201 -2 l-197 3 41 64 c23 36 69
93 103 128 l61 63 34 -32 c18 -18 55 -60 82 -93z"/>
<path d="M2230 3563 c-34 -13 -50 -37 -50 -74 0 -70 -10 -69 471 -69 l428 0
20 26 c27 35 26 57 -3 91 l-24 28 -414 2 c-227 1 -420 -1 -428 -4z"/>
<path d="M2197 3232 c-24 -27 -22 -85 4 -108 20 -18 42 -19 446 -19 l425 0 24
28 c29 34 30 56 3 91 l-20 26 -433 0 c-407 0 -434 -1 -449 -18z"/>
<path d="M2206 2619 c-33 -26 -36 -79 -6 -109 19 -19 33 -20 360 -20 327 0
341 1 360 20 30 30 27 83 -6 109 -26 20 -38 21 -354 21 -316 0 -328 -1 -354
-21z"/>
<path d="M2197 2302 c-24 -27 -22 -85 4 -108 19 -17 41 -19 253 -22 127 -2
246 0 264 3 67 12 94 78 52 123 -20 22 -26 22 -289 22 -247 0 -269 -1 -284
-18z"/>
<path d="M2202 1994 c-30 -21 -31 -83 -1 -110 19 -17 38 -19 205 -19 175 0
184 1 205 22 27 26 28 77 3 104 -16 17 -33 19 -203 19 -153 0 -191 -3 -209
-16z"/>
<path d="M1116 1219 c-33 -26 -36 -79 -6 -109 20 -20 33 -20 595 -20 562 0
575 0 595 20 30 30 27 83 -6 109 -26 21 -35 21 -589 21 -554 0 -563 0 -589
-21z"/>
<path d="M1140 923 c-52 -19 -68 -85 -30 -123 20 -20 33 -20 595 -20 562 0
575 0 595 20 27 27 26 81 -1 106 -20 18 -46 19 -583 21 -308 1 -568 -1 -576
-4z"/>
</g>
</svg>
